<mxfile host="app.diagrams.net" modified="2023-07-25T11:16:25.000Z" agent="Mozilla/5.0 (Windows NT 10.0; Win64; x64) AppleWebKit/537.36 (KHTML, like Gecko) Chrome/114.0.0.0 Safari/537.36" etag="7jXDAXUtuk85KlQFDbpb" version="21.6.5" type="device">
  <diagram name="PÃ¡gina-1" id="KptG2NSVaIoNb7bmPORQ">
    <mxGraphModel dx="1104" dy="620" grid="1" gridSize="10" guides="1" tooltips="1" connect="1" arrows="1" fold="1" page="1" pageScale="1" pageWidth="827" pageHeight="1169" math="0" shadow="0">
      <root>
        <mxCell id="0" />
        <mxCell id="1" parent="0" />
        <mxCell id="BUbc3WjKIzKhNUt_6iZI-6" style="edgeStyle=orthogonalEdgeStyle;rounded=0;orthogonalLoop=1;jettySize=auto;html=1;entryX=0.5;entryY=1;entryDx=0;entryDy=0;endArrow=none;endFill=0;" parent="1" source="BUbc3WjKIzKhNUt_6iZI-1" target="BUbc3WjKIzKhNUt_6iZI-2" edge="1">
          <mxGeometry relative="1" as="geometry" />
        </mxCell>
        <mxCell id="BUbc3WjKIzKhNUt_6iZI-7" style="edgeStyle=orthogonalEdgeStyle;rounded=0;orthogonalLoop=1;jettySize=auto;html=1;endArrow=none;endFill=0;" parent="1" source="BUbc3WjKIzKhNUt_6iZI-1" target="BUbc3WjKIzKhNUt_6iZI-3" edge="1">
          <mxGeometry relative="1" as="geometry" />
        </mxCell>
        <mxCell id="BUbc3WjKIzKhNUt_6iZI-1" value="Pessoa" style="rounded=0;whiteSpace=wrap;html=1;" parent="1" vertex="1">
          <mxGeometry x="350" y="350" width="120" height="60" as="geometry" />
        </mxCell>
        <mxCell id="BUbc3WjKIzKhNUt_6iZI-2" value="Telefone" style="rounded=0;whiteSpace=wrap;html=1;" parent="1" vertex="1">
          <mxGeometry x="350" y="190" width="120" height="60" as="geometry" />
        </mxCell>
        <mxCell id="BUbc3WjKIzKhNUt_6iZI-3" value="E-mails" style="rounded=0;whiteSpace=wrap;html=1;" parent="1" vertex="1">
          <mxGeometry x="150" y="230" width="120" height="60" as="geometry" />
        </mxCell>
        <mxCell id="BUbc3WjKIzKhNUt_6iZI-8" value="1" style="text;html=1;align=center;verticalAlign=middle;resizable=0;points=[];autosize=1;strokeColor=none;fillColor=none;" parent="1" vertex="1">
          <mxGeometry x="325" y="348" width="30" height="30" as="geometry" />
        </mxCell>
        <mxCell id="BUbc3WjKIzKhNUt_6iZI-9" value="1" style="text;html=1;align=center;verticalAlign=middle;resizable=0;points=[];autosize=1;strokeColor=none;fillColor=none;" parent="1" vertex="1">
          <mxGeometry x="380" y="318" width="30" height="30" as="geometry" />
        </mxCell>
        <mxCell id="BUbc3WjKIzKhNUt_6iZI-13" value="N" style="text;html=1;align=center;verticalAlign=middle;resizable=0;points=[];autosize=1;strokeColor=none;fillColor=none;" parent="1" vertex="1">
          <mxGeometry x="380" y="250" width="30" height="30" as="geometry" />
        </mxCell>
        <mxCell id="BUbc3WjKIzKhNUt_6iZI-15" value="N" style="text;html=1;align=center;verticalAlign=middle;resizable=0;points=[];autosize=1;strokeColor=none;fillColor=none;" parent="1" vertex="1">
          <mxGeometry x="210" y="290" width="30" height="30" as="geometry" />
        </mxCell>
        <mxCell id="BUbc3WjKIzKhNUt_6iZI-16" value="Possui" style="text;html=1;strokeColor=none;fillColor=none;align=center;verticalAlign=middle;whiteSpace=wrap;rounded=0;" parent="1" vertex="1">
          <mxGeometry x="150" y="350" width="60" height="30" as="geometry" />
        </mxCell>
        <mxCell id="BUbc3WjKIzKhNUt_6iZI-17" value="Possui" style="text;html=1;strokeColor=none;fillColor=none;align=center;verticalAlign=middle;whiteSpace=wrap;rounded=0;" parent="1" vertex="1">
          <mxGeometry x="410" y="285" width="60" height="30" as="geometry" />
        </mxCell>
        <mxCell id="F1Aja8xJBt7KAC8iWmqp-4" value="CNH" style="ellipse;whiteSpace=wrap;html=1;rounded=0;strokeColor=default;fontFamily=Helvetica;fontSize=12;fontColor=default;fillColor=default;" vertex="1" parent="1">
          <mxGeometry x="560" y="340" width="120" height="80" as="geometry" />
        </mxCell>
        <mxCell id="F1Aja8xJBt7KAC8iWmqp-5" value="" style="endArrow=none;html=1;rounded=0;fontFamily=Helvetica;fontSize=12;fontColor=default;exitX=1;exitY=0.5;exitDx=0;exitDy=0;entryX=0;entryY=0.5;entryDx=0;entryDy=0;" edge="1" parent="1" source="BUbc3WjKIzKhNUt_6iZI-1" target="F1Aja8xJBt7KAC8iWmqp-4">
          <mxGeometry width="50" height="50" relative="1" as="geometry">
            <mxPoint x="480" y="480" as="sourcePoint" />
            <mxPoint x="530" y="430" as="targetPoint" />
          </mxGeometry>
        </mxCell>
      </root>
    </mxGraphModel>
  </diagram>
</mxfile>
